; Drill file
; Format: 2.4 (00.0000)
M48
INCH
T01C0.0315
%
G05
G90
T01
X-000080Y001210
X001920Y001210
X003560Y002170
X003560Y003630
X001920Y003710
X001920Y005550
X003560Y005630
X003560Y007090
X001920Y008050
X003560Y009090
X006060Y009090
X007660Y009090
X009530Y009090
X006060Y007090
X006060Y005630
X006060Y003630
X006060Y002170
X006060Y000170
X003560Y000170
X-000080Y003710
X-000080Y005550
X-000080Y008050
X020520Y009090
X021520Y009090
X022520Y009090
X023820Y006500
X023820Y005500
X023820Y002000
X023820Y001000
X023820Y000000
X021220Y001170
X021220Y002170
M30
