; Drill file
; Format: 2.4 (00.0000)
M48
INCH
T01C0.0394
%
G05
G90
T01
X002120Y001880
X002120Y004630
X001130Y004630
X003120Y004630
X005120Y004630
X006130Y004630
X007130Y004630
X009120Y004630
X010120Y004630
X011130Y004630
X013120Y004630
X014130Y004630
X015120Y004630
X017120Y004630
X018120Y004630
X019130Y004630
X021120Y004630
X022120Y004630
X023120Y004630
X025130Y004630
X026120Y004630
X027120Y004630
X029130Y004630
X030130Y004630
X031120Y004630
X033120Y004630
X034130Y004630
X035130Y004630
X037120Y004630
X038120Y004630
X039130Y004630
X038880Y006620
X037880Y006620
X034870Y006620
X033880Y006620
X030870Y006620
X029870Y006620
X026880Y006620
X025870Y006620
X022880Y006620
X021880Y006620
X018870Y006620
X017880Y006620
X014880Y006620
X013870Y006620
X010870Y006620
X009880Y006620
X006880Y006620
X005880Y006620
X002870Y006620
X001880Y006620
X001880Y010620
X002870Y010620
X001380Y011880
X001630Y012620
X002630Y012620
X002630Y014380
X001630Y014380
X005620Y014380
X006620Y014380
X006620Y012620
X005620Y012620
X005370Y011880
X005880Y010620
X006880Y010620
X009380Y011880
X009630Y012620
X010620Y012620
X010620Y014380
X009630Y014380
X009880Y010620
X010870Y010620
X013370Y011880
X013630Y012620
X014620Y012620
X014620Y014380
X013630Y014380
X013870Y010620
X014880Y010620
X017380Y011880
X017620Y012620
X018630Y012620
X018630Y014380
X017620Y014380
X017880Y010620
X018870Y010620
X021380Y011880
X021630Y012620
X022630Y012620
X022630Y014380
X021630Y014380
X021880Y010620
X022880Y010620
X025380Y011880
X025620Y012620
X026630Y012620
X026630Y014380
X025620Y014380
X025870Y010620
X026880Y010620
X029380Y011880
X029620Y012620
X030620Y012620
X030620Y014380
X029620Y014380
X029870Y010620
X030870Y010620
X033370Y011880
X033620Y012620
X034620Y012620
X034620Y014380
X033620Y014380
X033880Y010620
X034870Y010620
X037370Y011880
X037630Y012620
X038620Y012620
X038620Y014380
X037630Y014380
X037880Y010620
X038880Y010620
X038120Y001880
X034130Y001880
X030130Y001880
X026120Y001880
X022120Y001880
X018120Y001880
X014130Y001880
X010120Y001880
X006130Y001880
M30
