%FSLAX34Y34*%
%MOMM*%
%LNSILK_TOP*%
G71*
G01*
%ADD10C, 1.80*%
%ADD11C, 0.80*%
%LPD*%
X782150Y12700D02*
G54D10*
D03*
X756750Y12700D02*
G54D10*
D03*
X731350Y12700D02*
G54D10*
D03*
X782150Y76200D02*
G54D10*
D03*
X731350Y76200D02*
G54D10*
D03*
X782150Y139700D02*
G54D10*
D03*
X731350Y139700D02*
G54D10*
D03*
X693250Y38100D02*
G54D10*
D03*
X693250Y139700D02*
G54D10*
D03*
G54D11*
X756750Y12700D02*
X756750Y25400D01*
X744050Y38100D01*
X731350Y38100D01*
X731350Y76200D01*
X731350Y38100D01*
X693250Y38100D01*
G54D11*
X782150Y76200D02*
X782150Y139700D01*
G54D11*
X680550Y139700D02*
X731350Y139700D01*
G54D11*
X782150Y114300D02*
X693250Y114300D01*
X693250Y88900D01*
X667850Y88900D01*
G54D11*
X693250Y139700D02*
X667850Y139700D01*
X667850Y114300D01*
G54D11*
X731350Y12700D02*
X667850Y12700D01*
G54D11*
X782150Y12700D02*
X782150Y38100D01*
X756750Y63500D01*
X756750Y101600D01*
X705950Y101600D01*
X705950Y63500D01*
X667850Y63500D01*
X667850Y38100D02*
G54D10*
D03*
X667850Y63500D02*
G54D10*
D03*
X667850Y88900D02*
G54D10*
D03*
X667850Y114300D02*
G54D10*
D03*
X667850Y139700D02*
G54D10*
D03*
X667850Y12700D02*
G54D10*
D03*
G54D11*
X667850Y12700D02*
X667850Y38100D01*
X617050Y12700D02*
G54D10*
D03*
X591650Y12700D02*
G54D10*
D03*
X566250Y12700D02*
G54D10*
D03*
X617050Y76200D02*
G54D10*
D03*
X566250Y76200D02*
G54D10*
D03*
X617050Y139700D02*
G54D10*
D03*
X566250Y139700D02*
G54D10*
D03*
X528150Y38100D02*
G54D10*
D03*
X528150Y139700D02*
G54D10*
D03*
G54D11*
X591650Y12700D02*
X591650Y25400D01*
X578950Y38100D01*
X566250Y38100D01*
X566250Y76200D01*
X566250Y38100D01*
X528150Y38100D01*
G54D11*
X617050Y76200D02*
X617050Y139700D01*
G54D11*
X515450Y139700D02*
X566250Y139700D01*
G54D11*
X617050Y114300D02*
X528150Y114300D01*
X528150Y88900D01*
X502750Y88900D01*
G54D11*
X528150Y139700D02*
X502750Y139700D01*
X502750Y114300D01*
G54D11*
X566250Y12700D02*
X502750Y12700D01*
G54D11*
X617050Y12700D02*
X617050Y38100D01*
X591650Y63500D01*
X591650Y101600D01*
X540850Y101600D01*
X540850Y63500D01*
X502750Y63500D01*
X502750Y38100D02*
G54D10*
D03*
X502750Y63500D02*
G54D10*
D03*
X502750Y88900D02*
G54D10*
D03*
X502750Y114300D02*
G54D10*
D03*
X502750Y139700D02*
G54D10*
D03*
X502750Y12700D02*
G54D10*
D03*
G54D11*
X502750Y12700D02*
X502750Y38100D01*
X451950Y12700D02*
G54D10*
D03*
X426550Y12700D02*
G54D10*
D03*
X401150Y12700D02*
G54D10*
D03*
X451950Y76200D02*
G54D10*
D03*
X401150Y76200D02*
G54D10*
D03*
X451950Y139700D02*
G54D10*
D03*
X401150Y139700D02*
G54D10*
D03*
X363050Y38100D02*
G54D10*
D03*
X363050Y139700D02*
G54D10*
D03*
G54D11*
X426550Y12700D02*
X426550Y25400D01*
X413850Y38100D01*
X401150Y38100D01*
X401150Y76200D01*
X401150Y38100D01*
X363050Y38100D01*
G54D11*
X451950Y76200D02*
X451950Y139700D01*
G54D11*
X350350Y139700D02*
X401150Y139700D01*
G54D11*
X451950Y114300D02*
X363050Y114300D01*
X363050Y88900D01*
X337650Y88900D01*
G54D11*
X363050Y139700D02*
X337650Y139700D01*
X337650Y114300D01*
G54D11*
X401150Y12700D02*
X337650Y12700D01*
G54D11*
X451950Y12700D02*
X451950Y38100D01*
X426550Y63500D01*
X426550Y101600D01*
X375750Y101600D01*
X375750Y63500D01*
X337650Y63500D01*
X337650Y38100D02*
G54D10*
D03*
X337650Y63500D02*
G54D10*
D03*
X337650Y88900D02*
G54D10*
D03*
X337650Y114300D02*
G54D10*
D03*
X337650Y139700D02*
G54D10*
D03*
X337650Y12700D02*
G54D10*
D03*
G54D11*
X337650Y12700D02*
X337650Y38100D01*
X286850Y12700D02*
G54D10*
D03*
X261450Y12700D02*
G54D10*
D03*
X236050Y12700D02*
G54D10*
D03*
X286850Y76200D02*
G54D10*
D03*
X236050Y76200D02*
G54D10*
D03*
X286850Y139700D02*
G54D10*
D03*
X236050Y139700D02*
G54D10*
D03*
X197950Y38100D02*
G54D10*
D03*
X197950Y139700D02*
G54D10*
D03*
G54D11*
X261450Y12700D02*
X261450Y25400D01*
X248750Y38100D01*
X236050Y38100D01*
X236050Y76200D01*
X236050Y38100D01*
X197950Y38100D01*
G54D11*
X286850Y76200D02*
X286850Y139700D01*
G54D11*
X185250Y139700D02*
X236050Y139700D01*
G54D11*
X286850Y114300D02*
X197950Y114300D01*
X197950Y88900D01*
X172550Y88900D01*
G54D11*
X197950Y139700D02*
X172550Y139700D01*
X172550Y114300D01*
G54D11*
X236050Y12700D02*
X172550Y12700D01*
G54D11*
X286850Y12700D02*
X286850Y38100D01*
X261450Y63500D01*
X261450Y101600D01*
X210650Y101600D01*
X210650Y63500D01*
X172550Y63500D01*
X172550Y38100D02*
G54D10*
D03*
X172550Y63500D02*
G54D10*
D03*
X172550Y88900D02*
G54D10*
D03*
X172550Y114300D02*
G54D10*
D03*
X172550Y139700D02*
G54D10*
D03*
X172550Y12700D02*
G54D10*
D03*
G54D11*
X172550Y12700D02*
X172550Y38100D01*
X121750Y12700D02*
G54D10*
D03*
X96350Y12700D02*
G54D10*
D03*
X70950Y12700D02*
G54D10*
D03*
X121750Y76200D02*
G54D10*
D03*
X70950Y76200D02*
G54D10*
D03*
X121750Y139700D02*
G54D10*
D03*
X70950Y139700D02*
G54D10*
D03*
X32850Y38100D02*
G54D10*
D03*
X32850Y139700D02*
G54D10*
D03*
G54D11*
X96350Y12700D02*
X96350Y25400D01*
X83650Y38100D01*
X70950Y38100D01*
X70950Y76200D01*
X70950Y38100D01*
X32850Y38100D01*
G54D11*
X121750Y76200D02*
X121750Y139700D01*
G54D11*
X20150Y139700D02*
X70950Y139700D01*
G54D11*
X121750Y114300D02*
X32850Y114300D01*
X32850Y88900D01*
X7450Y88900D01*
G54D11*
X32850Y139700D02*
X7450Y139700D01*
X7450Y114300D01*
G54D11*
X70950Y12700D02*
X7450Y12700D01*
G54D11*
X121750Y12700D02*
X121750Y38100D01*
X96350Y63500D01*
X96350Y101600D01*
X45550Y101600D01*
X45550Y63500D01*
X7450Y63500D01*
X7450Y38100D02*
G54D10*
D03*
X7450Y63500D02*
G54D10*
D03*
X7450Y88900D02*
G54D10*
D03*
X7450Y114300D02*
G54D10*
D03*
X7450Y139700D02*
G54D10*
D03*
X7450Y12700D02*
G54D10*
D03*
G54D11*
X7450Y12700D02*
X7450Y38100D01*
M02*
