; Drill file
; Format: 2.4 (00.0000)
M48
INCH
T01C0.0394
%
G05
G90
T01
X000290Y000500
X000290Y001500
X001290Y001500
X000290Y002500
X000290Y003500
X000290Y004500
X000290Y005500
X001290Y005500
X002790Y005500
X004790Y005500
X006790Y005500
X007790Y005500
X006790Y004500
X006790Y003500
X006790Y002500
X006790Y001500
X007790Y001500
X006790Y000500
X004790Y000500
X003790Y000500
X002790Y000500
X002790Y003000
X004790Y003000
X009290Y003000
X011290Y003000
X013290Y002500
X013290Y001500
X013290Y000500
X014290Y001500
X015790Y000500
X016790Y000500
X017790Y000500
X019790Y000500
X019790Y001500
X019790Y002500
X019790Y003500
X019790Y004500
X019790Y005500
X020790Y005500
X022290Y005500
X024290Y005500
X026290Y005500
X027290Y005500
X026290Y004500
X026290Y003500
X026290Y002500
X026290Y001500
X027290Y001500
X026290Y000500
X024290Y000500
X023290Y000500
X022290Y000500
X020790Y001500
X022290Y003000
X024290Y003000
X028790Y003000
X030790Y003000
X030790Y000500
X029790Y000500
X028790Y000500
X028790Y005500
X030790Y005500
X017790Y005500
X015790Y005500
X014290Y005500
X013290Y005500
X013290Y004500
X013290Y003500
X015790Y003000
X017790Y003000
X011290Y000500
X010290Y000500
X009290Y000500
X009290Y005500
X011290Y005500
M30
