%FSLAX34Y34*%
%MOMM*%
%LNSILK_TOP*%
G71*
G01*
%ADD10C, 1.80*%
%ADD11C, 0.80*%
%LPD*%
X50800Y25400D02*
G54D10*
D03*
X76200Y25400D02*
G54D10*
D03*
X101600Y25400D02*
G54D10*
D03*
X50800Y50800D02*
G54D10*
D03*
X76200Y50800D02*
G54D10*
D03*
X101600Y50800D02*
G54D10*
D03*
X50800Y76200D02*
G54D10*
D03*
X76200Y76200D02*
G54D10*
D03*
X101600Y76200D02*
G54D10*
D03*
X50800Y101600D02*
G54D10*
D03*
X76200Y101600D02*
G54D10*
D03*
X101600Y101600D02*
G54D10*
D03*
X50800Y127000D02*
G54D10*
D03*
X76200Y127000D02*
G54D10*
D03*
X101600Y127000D02*
G54D10*
D03*
X50800Y152400D02*
G54D10*
D03*
X76200Y152400D02*
G54D10*
D03*
X101600Y152400D02*
G54D10*
D03*
G54D11*
X76200Y152400D02*
X76200Y25400D01*
G54D11*
X101600Y25400D02*
X101600Y152400D01*
X304800Y228600D02*
G54D10*
D03*
X304800Y254000D02*
G54D10*
D03*
X304800Y279400D02*
G54D10*
D03*
X304800Y304800D02*
G54D10*
D03*
X304800Y330200D02*
G54D10*
D03*
X304800Y355600D02*
G54D10*
D03*
X304800Y381000D02*
G54D10*
D03*
X304800Y406400D02*
G54D10*
D03*
X177800Y228600D02*
G54D10*
D03*
X177800Y254000D02*
G54D10*
D03*
X177800Y279400D02*
G54D10*
D03*
X177800Y304800D02*
G54D10*
D03*
X177800Y330200D02*
G54D10*
D03*
X177800Y355600D02*
G54D10*
D03*
X177800Y381000D02*
G54D10*
D03*
X177800Y406400D02*
G54D10*
D03*
X152400Y228600D02*
G54D10*
D03*
X152400Y254000D02*
G54D10*
D03*
X152400Y279400D02*
G54D10*
D03*
X152400Y304800D02*
G54D10*
D03*
X152400Y330200D02*
G54D10*
D03*
X152400Y355600D02*
G54D10*
D03*
X152400Y381000D02*
G54D10*
D03*
X152400Y406400D02*
G54D10*
D03*
G54D11*
X152400Y406400D02*
X177800Y406400D01*
G54D11*
X177800Y254000D02*
X152400Y254000D01*
G54D11*
X101600Y254000D02*
X127000Y228600D01*
X152400Y228600D01*
G54D11*
X76200Y152400D02*
X76200Y165100D01*
X88900Y177800D01*
X101600Y177800D01*
X101600Y215900D01*
X76200Y241300D01*
X76200Y279400D01*
G54D11*
X177800Y279400D02*
X152400Y304800D01*
G54D11*
X177800Y304800D02*
X152400Y330200D01*
G54D11*
X177800Y330200D02*
X152400Y355600D01*
G54D11*
X177800Y355600D02*
X152400Y381000D01*
G54D11*
X177800Y381000D02*
X228600Y381000D01*
X228600Y266700D01*
X203200Y241300D01*
X203200Y203200D01*
X152400Y203200D01*
X152400Y228600D01*
X482600Y266700D02*
G54D10*
D03*
X482600Y292100D02*
G54D10*
D03*
X482600Y317500D02*
G54D10*
D03*
X482600Y342900D02*
G54D10*
D03*
X482600Y368300D02*
G54D10*
D03*
X457200Y266700D02*
G54D10*
D03*
X457200Y292100D02*
G54D10*
D03*
X457200Y317500D02*
G54D10*
D03*
X457200Y342900D02*
G54D10*
D03*
X457200Y368300D02*
G54D10*
D03*
X431800Y266700D02*
G54D10*
D03*
X431800Y292100D02*
G54D10*
D03*
X431800Y317500D02*
G54D10*
D03*
X431800Y342900D02*
G54D10*
D03*
X431800Y368300D02*
G54D10*
D03*
G54D11*
X457200Y368300D02*
X457200Y266700D01*
G54D11*
X431800Y266700D02*
X431800Y368300D01*
X482600Y419100D02*
G54D10*
D03*
X482600Y444500D02*
G54D10*
D03*
X482600Y469900D02*
G54D10*
D03*
G54D11*
X304800Y355600D02*
X330200Y355600D01*
G54D11*
X381000Y355600D02*
X381000Y292100D01*
X393700Y279400D01*
X393700Y190500D01*
X457200Y190500D01*
X469900Y203200D01*
G54D11*
X304800Y381000D02*
X355600Y381000D01*
X355600Y292100D01*
X381000Y266700D01*
X381000Y177800D01*
X469900Y177800D01*
G54D11*
X304800Y330200D02*
X330200Y330200D01*
X330200Y279400D01*
X355600Y254000D01*
X355600Y165100D01*
X457200Y165100D01*
X469900Y152400D01*
G54D11*
X469900Y76200D02*
X254000Y76200D01*
X254000Y241300D01*
X292100Y279400D01*
X304800Y279400D01*
G54D11*
X304800Y228600D02*
X279400Y228600D01*
X279400Y101600D01*
X469900Y101600D01*
G54D11*
X469900Y127000D02*
X457200Y114300D01*
X304800Y114300D01*
X292100Y127000D01*
X292100Y152400D01*
X330200Y190500D01*
X330200Y241300D01*
X317500Y254000D01*
X304800Y254000D01*
G54D11*
X482600Y50800D02*
X431800Y50800D01*
X431800Y25400D02*
G54D10*
D03*
X406400Y25400D02*
G54D10*
D03*
X381000Y25400D02*
G54D10*
D03*
X355600Y25400D02*
G54D10*
D03*
G54D11*
X431800Y25400D02*
X431800Y50800D01*
G54D11*
X406400Y25400D02*
X406400Y50800D01*
G54D11*
X254000Y50800D02*
X381000Y50800D01*
X381000Y25400D01*
G54D11*
X76200Y419100D02*
X63500Y431800D01*
X63500Y469900D01*
X419100Y469900D01*
G54D11*
X0Y495300D02*
X533400Y495300D01*
X533400Y0D01*
X0Y0D01*
X0Y495300D01*
X25400Y444500D02*
G54D10*
D03*
X88900Y444500D02*
G54D10*
D03*
G54D11*
X25400Y444500D02*
X25400Y406400D01*
G54D11*
X88900Y444500D02*
X254000Y444500D01*
X254000Y406400D01*
G54D11*
X101600Y50800D02*
X228600Y50800D01*
G54D11*
X304800Y304800D02*
X279400Y304800D01*
G54D11*
X203200Y304800D02*
X203200Y266700D01*
X190500Y254000D01*
X177800Y254000D01*
G54D11*
X228600Y50800D02*
X254000Y50800D01*
G54D11*
X177800Y406400D02*
X254000Y406400D01*
X254000Y266700D01*
X228600Y241300D01*
X228600Y177800D01*
X177800Y177800D01*
X177800Y50800D01*
X266700Y50800D01*
G54D11*
X254000Y406400D02*
X304800Y406400D01*
X254000Y406400D01*
G54D11*
X127000Y25400D02*
X355600Y25400D01*
G54D11*
X419100Y469900D02*
X457200Y469900D01*
X457200Y444500D01*
G54D11*
X431800Y444500D02*
X88900Y444500D01*
X431800Y444500D01*
X431800Y419100D01*
X431800Y444500D01*
G54D11*
X431800Y444500D02*
X431800Y368300D01*
G54D11*
X457200Y444500D02*
X457200Y368300D01*
X25400Y406400D02*
G54D10*
D03*
X25400Y381000D02*
G54D10*
D03*
X25400Y355600D02*
G54D10*
D03*
X25400Y330200D02*
G54D10*
D03*
X25400Y304800D02*
G54D10*
D03*
X25400Y279400D02*
G54D10*
D03*
X25400Y254000D02*
G54D10*
D03*
X25400Y228600D02*
G54D10*
D03*
X25400Y203200D02*
G54D10*
D03*
X25400Y152400D02*
G54D10*
D03*
X25400Y127000D02*
G54D10*
D03*
X25400Y101600D02*
G54D10*
D03*
X25400Y76200D02*
G54D10*
D03*
X25400Y50800D02*
G54D10*
D03*
X25400Y25400D02*
G54D10*
D03*
X508000Y25400D02*
G54D10*
D03*
X508000Y50800D02*
G54D10*
D03*
X508000Y76200D02*
G54D10*
D03*
X508000Y101600D02*
G54D10*
D03*
X508000Y127000D02*
G54D10*
D03*
X508000Y152400D02*
G54D10*
D03*
X508000Y177800D02*
G54D10*
D03*
X508000Y203200D02*
G54D10*
D03*
X508000Y241300D02*
G54D10*
D03*
X508000Y266700D02*
G54D10*
D03*
X508000Y292100D02*
G54D10*
D03*
X508000Y317500D02*
G54D10*
D03*
X508000Y342900D02*
G54D10*
D03*
X508000Y368300D02*
G54D10*
D03*
X508000Y393700D02*
G54D10*
D03*
X508000Y419100D02*
G54D10*
D03*
X508000Y444500D02*
G54D10*
D03*
X508000Y469900D02*
G54D10*
D03*
G54D11*
X482600Y469900D02*
X508000Y469900D01*
G54D11*
X482600Y444500D02*
X508000Y444500D01*
G54D11*
X508000Y419100D02*
X482600Y419100D01*
G54D11*
X482600Y368300D02*
X508000Y368300D01*
G54D11*
X482600Y342900D02*
X508000Y342900D01*
G54D11*
X508000Y317500D02*
X482600Y317500D01*
G54D11*
X508000Y292100D02*
X482600Y292100D01*
G54D11*
X508000Y266700D02*
X482600Y266700D01*
X431800Y419100D02*
G54D10*
D03*
X457200Y419100D02*
G54D10*
D03*
X431800Y444500D02*
G54D10*
D03*
X457200Y444500D02*
G54D10*
D03*
G54D11*
X25400Y152400D02*
X50800Y152400D01*
G54D11*
X50800Y127000D02*
X25400Y127000D01*
G54D11*
X25400Y101600D02*
X50800Y101600D01*
G54D11*
X50800Y76200D02*
X25400Y76200D01*
G54D11*
X25400Y50800D02*
X50800Y50800D01*
G54D11*
X50800Y25400D02*
X25400Y25400D01*
X203200Y304800D02*
G54D10*
D03*
X279400Y304800D02*
G54D10*
D03*
X419100Y215900D02*
G54D10*
D03*
G54D11*
X419100Y215900D02*
X419100Y241300D01*
X508000Y241300D01*
G54D11*
X469900Y203200D02*
X508000Y203200D01*
G54D11*
X508000Y177800D02*
X469900Y177800D01*
G54D11*
X469900Y152400D02*
X508000Y152400D01*
G54D11*
X508000Y127000D02*
X469900Y127000D01*
G54D11*
X469900Y101600D02*
X508000Y101600D01*
G54D11*
X508000Y76200D02*
X469900Y76200D01*
G54D11*
X469900Y50800D02*
X508000Y50800D01*
X406400Y50800D02*
G54D10*
D03*
X482600Y25400D02*
G54D10*
D03*
G54D11*
X482600Y25400D02*
X508000Y25400D01*
G54D11*
X76200Y419100D02*
X76200Y279400D01*
G54D11*
X25400Y279400D02*
X76200Y279400D01*
G54D11*
X25400Y330200D02*
X50800Y330200D01*
X50800Y406400D01*
X25400Y406400D01*
X101600Y304800D02*
G54D10*
D03*
X101600Y330200D02*
G54D10*
D03*
X101600Y355600D02*
G54D10*
D03*
X101600Y381000D02*
G54D10*
D03*
G54D11*
X101600Y304800D02*
X152400Y304800D01*
G54D11*
X152400Y330200D02*
X101600Y330200D01*
G54D11*
X101600Y355600D02*
X152400Y355600D01*
G54D11*
X152400Y381000D02*
X101600Y381000D01*
X50800Y203200D02*
G54D10*
D03*
X76200Y203200D02*
G54D10*
D03*
G54D11*
X25400Y254000D02*
X50800Y254000D01*
X50800Y228600D01*
X25400Y228600D01*
G54D11*
X25400Y203200D02*
X50800Y203200D01*
G54D11*
X152400Y254000D02*
X127000Y279400D01*
X76200Y279400D01*
X127000Y25400D02*
G54D10*
D03*
X127000Y76200D02*
G54D10*
D03*
G54D11*
X127000Y76200D02*
X127000Y165100D01*
X114300Y177800D01*
X101600Y177800D01*
X101600Y203200D01*
X431800Y393700D02*
G54D10*
D03*
X457200Y393700D02*
G54D10*
D03*
X330200Y355600D02*
G54D10*
D03*
X381000Y355600D02*
G54D10*
D03*
G54D11*
X152400Y50800D02*
X152400Y88900D01*
X139700Y101600D01*
X139700Y190500D01*
X127000Y203200D01*
X127000Y203200D02*
G54D10*
D03*
X101600Y254000D02*
G54D10*
D03*
G54D11*
X76200Y203200D02*
X76200Y215900D01*
X63500Y228600D01*
X50800Y228600D01*
X419100Y139700D02*
G54D10*
D03*
G54D11*
X419100Y139700D02*
X317500Y139700D01*
X317500Y139700D02*
G54D10*
D03*
X317500Y50800D02*
G54D10*
D03*
G54D11*
X177800Y177800D02*
X139700Y177800D01*
M02*
