; Drill file
; Format: 2.4 (00.0000)
M48
INCH
T01C0.0276
%
G05
G90
T01
X001000Y001000
X002000Y001000
X003000Y001000
X004000Y001000
X004000Y002000
X003000Y002000
X002000Y002000
X002000Y003000
X003000Y003000
X004000Y003000
X004000Y004000
X003000Y004000
X002000Y004000
X002000Y005000
X003000Y005000
X004000Y005000
X004000Y006000
X003000Y006000
X002000Y006000
X001000Y006000
X001000Y005000
X001000Y004000
X001000Y003000
X001000Y002000
X005000Y001000
X005000Y003000
X005000Y008000
X006000Y009000
X007000Y009000
X007000Y010000
X007000Y011000
X007000Y012000
X007000Y013000
X007000Y014000
X007000Y015000
X007000Y016000
X006000Y016000
X006000Y015000
X006000Y014000
X006000Y013000
X006000Y012000
X006000Y011000
X006000Y010000
X004000Y010000
X004000Y012000
X004000Y013000
X004000Y014000
X004000Y015000
X003500Y017500
X001000Y017500
X001000Y016000
X001000Y015000
X001000Y014000
X001000Y013000
X001000Y012000
X001000Y011000
X001000Y010000
X001000Y009000
X001000Y008000
X002000Y008000
X003000Y008000
X008000Y012000
X011000Y012000
X012000Y012000
X012000Y011000
X012000Y010000
X012000Y009000
X012500Y005500
X012500Y002000
X014000Y001000
X015000Y001000
X016000Y001000
X017000Y001000
X016000Y002000
X019000Y001000
X020000Y001000
X020000Y002000
X020000Y003000
X020000Y004000
X020000Y005000
X020000Y006000
X020000Y007000
X020000Y008000
X020000Y009500
X020000Y010500
X019000Y010500
X019000Y011500
X019000Y012500
X019000Y013500
X019000Y014500
X018000Y014500
X018000Y013500
X018000Y012500
X018000Y011500
X018000Y010500
X017000Y010500
X017000Y011500
X017000Y012500
X017000Y013500
X017000Y014500
X017000Y015500
X017000Y016500
X018000Y016500
X019000Y016500
X019000Y017500
X019000Y018500
X020000Y018500
X020000Y017500
X020000Y016500
X020000Y015500
X020000Y014500
X020000Y013500
X020000Y012500
X020000Y011500
X018000Y015500
X018000Y017500
X017000Y017500
X015000Y014000
X013000Y014000
X012000Y014000
X012000Y013000
X012000Y015000
X012000Y016000
X016500Y008500
X016500Y005500
M30
