; Drill file
; Format: 2.4 (00.0000)
M48
INCH
T01C0.0315
T02C0.0433
%
G05
G90
T01
X012430Y009960
X013430Y009960
X021390Y009960
X022390Y009960
X023390Y009960
X024690Y009090
X024690Y008090
X024690Y002430
X024690Y001430
X024690Y000430
X022090Y002030
X022090Y003030
T02
X000780Y002080
X002780Y002080
X004430Y003030
X004430Y004500
X002780Y004580
X002780Y006410
X004430Y006500
X004430Y007960
X002780Y008910
X004430Y009960
X006930Y009960
X006930Y007960
X006930Y006500
X006930Y004500
X006930Y003030
X006930Y001030
X004430Y001030
X000780Y004580
X000780Y006410
X000780Y008910
M30
