%FSLAX34Y34*%
%MOMM*%
%LNSILK_TOP*%
G71*
G01*
%ADD10R, 1.70X0.80*%
%ADD11C, 0.80*%
%ADD12R, 1.50X1.50*%
%ADD13C, 2.00*%
%ADD14C, 0.48*%
%ADD15C, 2.30*%
%LPD*%
X341000Y176000D02*
G54D10*
D03*
X341000Y165000D02*
G54D10*
D03*
X341000Y154000D02*
G54D10*
D03*
X341000Y143000D02*
G54D10*
D03*
X341000Y132000D02*
G54D10*
D03*
X341000Y121000D02*
G54D10*
D03*
X341000Y110000D02*
G54D10*
D03*
X341000Y99000D02*
G54D10*
D03*
X341000Y88000D02*
G54D10*
D03*
X341000Y77000D02*
G54D10*
D03*
X341000Y66000D02*
G54D10*
D03*
X341000Y55000D02*
G54D10*
D03*
X341000Y44000D02*
G54D10*
D03*
X341000Y33000D02*
G54D10*
D03*
X341000Y22000D02*
G54D10*
D03*
X341000Y187000D02*
G54D10*
D03*
X473000Y176000D02*
G54D10*
D03*
X473000Y165000D02*
G54D10*
D03*
X473000Y154000D02*
G54D10*
D03*
X473000Y143000D02*
G54D10*
D03*
X473000Y132000D02*
G54D10*
D03*
X473000Y121000D02*
G54D10*
D03*
X473000Y110000D02*
G54D10*
D03*
X473000Y99000D02*
G54D10*
D03*
X473000Y88000D02*
G54D10*
D03*
X473000Y77000D02*
G54D10*
D03*
X473000Y66000D02*
G54D10*
D03*
X473000Y55000D02*
G54D10*
D03*
X473000Y44000D02*
G54D10*
D03*
X473000Y33000D02*
G54D10*
D03*
X473000Y22000D02*
G54D10*
D03*
X473000Y187000D02*
G54D10*
D03*
G54D11*
X473000Y165000D02*
X583000Y165000D01*
X583000Y209000D01*
G54D11*
X473000Y187000D02*
X561000Y187000D01*
G54D11*
X341000Y187000D02*
X341000Y253000D01*
X473000Y253000D01*
X473000Y187000D01*
G54D11*
X506000Y242000D02*
X528000Y242000D01*
G54D11*
X473000Y22000D02*
X473000Y11000D01*
X341000Y11000D01*
X341000Y22000D01*
G54D11*
X385000Y11000D02*
X385000Y187000D01*
X341000Y187000D01*
G54D11*
X341000Y165000D02*
X385000Y165000D01*
G54D11*
X385000Y187000D02*
X473000Y187000D01*
G54D11*
X473000Y77000D02*
X539000Y77000D01*
G54D11*
X341000Y11000D02*
X253000Y11000D01*
X253000Y11000D02*
G54D12*
D03*
X231000Y11000D02*
G54D12*
D03*
X231000Y33000D02*
G54D12*
D03*
X231000Y55000D02*
G54D12*
D03*
X253000Y55000D02*
G54D12*
D03*
X253000Y33000D02*
G54D12*
D03*
G54D11*
X341000Y33000D02*
X253000Y33000D01*
G54D11*
X341000Y44000D02*
X297000Y44000D01*
X297000Y55000D01*
X253000Y55000D01*
G54D11*
X231000Y55000D02*
X231000Y11000D01*
X561000Y209000D02*
G54D12*
D03*
X561000Y187000D02*
G54D12*
D03*
X583000Y187000D02*
G54D12*
D03*
X583000Y209000D02*
G54D12*
D03*
G54D11*
X473000Y121000D02*
X539000Y121000D01*
G54D11*
X473000Y110000D02*
X506000Y110000D01*
X506000Y99000D01*
X539000Y99000D01*
G54D11*
X561000Y187000D02*
X561000Y209000D01*
G54D11*
X473000Y253000D02*
X543200Y253000D01*
X315600Y253000D02*
G54D13*
D03*
X341000Y253000D02*
G54D13*
D03*
X627000Y231000D02*
G54D13*
D03*
X627000Y205600D02*
G54D13*
D03*
G54D11*
X583000Y165000D02*
X627000Y165000D01*
X627000Y205600D01*
X561000Y77000D02*
G54D13*
D03*
X561000Y51600D02*
G54D13*
D03*
X627000Y11000D02*
G54D13*
D03*
X627000Y36400D02*
G54D13*
D03*
X627000Y11000D02*
G54D13*
D03*
X627000Y36400D02*
G54D13*
D03*
X627000Y61800D02*
G54D13*
D03*
G54D11*
X473000Y66000D02*
X506000Y66000D01*
X506000Y55000D01*
X557600Y55000D01*
X561000Y51600D01*
G54D11*
X539000Y77000D02*
X561000Y77000D01*
G54D11*
X473000Y11000D02*
X627000Y11000D01*
G54D11*
X539000Y99000D02*
X594000Y99000D01*
X594000Y33000D01*
X623600Y33000D01*
X627000Y36400D01*
G54D11*
X539000Y121000D02*
X627000Y121000D01*
X627000Y61800D01*
G54D14*
X616000Y187667D02*
X600000Y187667D01*
G54D14*
X608000Y194333D02*
X608000Y181000D01*
X176000Y77000D02*
G54D15*
D03*
X176000Y26200D02*
G54D15*
D03*
X112500Y26200D02*
G54D15*
D03*
X112500Y77000D02*
G54D15*
D03*
G54D11*
X341000Y154000D02*
X330000Y154000D01*
G54D11*
X341000Y143000D02*
X330000Y143000D01*
G54D11*
X341000Y132000D02*
X330000Y132000D01*
G54D11*
X341000Y121000D02*
X330000Y121000D01*
G54D11*
X341000Y110000D02*
X330000Y110000D01*
X176000Y253000D02*
G54D15*
D03*
X176000Y202200D02*
G54D15*
D03*
X112500Y202200D02*
G54D15*
D03*
X112500Y253000D02*
G54D15*
D03*
X176000Y165000D02*
G54D15*
D03*
X176000Y114200D02*
G54D15*
D03*
X112500Y114200D02*
G54D15*
D03*
X112500Y165000D02*
G54D15*
D03*
X70650Y162850D02*
G54D15*
D03*
X19850Y162850D02*
G54D15*
D03*
X19850Y226350D02*
G54D15*
D03*
X70650Y226350D02*
G54D15*
D03*
X70650Y52850D02*
G54D15*
D03*
X19850Y52850D02*
G54D15*
D03*
X19850Y116350D02*
G54D15*
D03*
X70650Y116350D02*
G54D15*
D03*
X543200Y253000D02*
G54D13*
D03*
X568600Y253000D02*
G54D13*
D03*
X543200Y253000D02*
G54D13*
D03*
X568600Y253000D02*
G54D13*
D03*
X594000Y253000D02*
G54D13*
D03*
G54D11*
X627000Y231000D02*
X572000Y231000D01*
X572000Y249600D01*
X568600Y253000D01*
G54D11*
X315600Y253000D02*
X165000Y253000D01*
X101500Y253000D01*
X22000Y253000D01*
X22000Y228500D01*
X19850Y226350D01*
X19850Y52850D01*
X19850Y24150D01*
X22000Y22000D01*
X165000Y22000D01*
G54D11*
X209000Y231000D02*
X75300Y231000D01*
X70650Y226350D01*
G54D11*
X220000Y209000D02*
X182800Y209000D01*
X176000Y202200D01*
G54D11*
X70650Y162850D02*
X70650Y226350D01*
G54D11*
X70650Y52850D02*
X70650Y116350D01*
G54D11*
X198000Y143000D02*
X88000Y143000D01*
X88000Y133700D01*
X70650Y116350D01*
G54D11*
X209000Y165000D02*
X176000Y165000D01*
G54D11*
X176000Y165000D02*
X112500Y165000D01*
G54D11*
X176000Y202200D02*
X112500Y202200D01*
G54D11*
X176000Y114200D02*
X112500Y114200D01*
G54D11*
X112500Y114200D02*
X108350Y114200D01*
X91050Y96900D01*
X91050Y68325D01*
X90256Y67531D01*
X90256Y60784D01*
X98194Y52847D01*
X98194Y41734D01*
X89462Y33003D01*
X89462Y23478D01*
X88272Y22288D01*
G54D11*
X154000Y22000D02*
X171800Y22000D01*
X176000Y26200D01*
G54D11*
X112500Y77000D02*
X176000Y77000D01*
G54D11*
X341000Y88000D02*
X330000Y88000D01*
G54D11*
X341000Y77000D02*
X330000Y77000D01*
G54D11*
X209000Y231000D02*
X308000Y231000D01*
X308000Y154000D01*
X330000Y154000D01*
G54D11*
X330000Y143000D02*
X286000Y143000D01*
X286000Y209000D01*
X220000Y209000D01*
G54D11*
X330000Y132000D02*
X264000Y132000D01*
X264000Y165000D01*
X209000Y165000D01*
G54D11*
X330000Y121000D02*
X242000Y121000D01*
X242000Y143000D01*
X187000Y143000D01*
G54D11*
X330000Y110000D02*
X198000Y110000D01*
X198000Y77000D01*
X176000Y77000D01*
G54D11*
X330000Y88000D02*
X275000Y88000D01*
G54D11*
X330000Y77000D02*
X275000Y77000D01*
M02*
