; Drill file
; Format: 2.4 (00.0000)
M48
INCH
T01C0.0394
%
G05
G90
T01
X002000Y002000
X004000Y002000
X005000Y002000
X006000Y002000
X008000Y002000
X009000Y002000
X010000Y002000
X012000Y002000
X013000Y002000
X014000Y002000
X016000Y002000
X017000Y002000
X018000Y002000
X020000Y002000
X021000Y002000
X020500Y004000
X020000Y005000
X021000Y005000
X021000Y006000
X021000Y007000
X021000Y008000
X020000Y008000
X020000Y007000
X019000Y007000
X018000Y007000
X017000Y007000
X016000Y007000
X015000Y007000
X014000Y007000
X013000Y007000
X012000Y007000
X011000Y007000
X010000Y007000
X009000Y007000
X008000Y007000
X007000Y007000
X006000Y007000
X005000Y007000
X004000Y007000
X004000Y008000
X005000Y008000
X005000Y009000
X005000Y010000
X004000Y010000
X005000Y011000
X006000Y011000
X006000Y010000
X007000Y010000
X007000Y009000
X007000Y008000
X006000Y008000
X006000Y009000
X008000Y009000
X008000Y008000
X009000Y008000
X009000Y009000
X010000Y009000
X010000Y008000
X011000Y008000
X011000Y009000
X011000Y010000
X012000Y010000
X012000Y011000
X013000Y011000
X014000Y011000
X014000Y010000
X013000Y010000
X013000Y009000
X013000Y008000
X012000Y008000
X012000Y009000
X014000Y009000
X014000Y008000
X015000Y008000
X016000Y008000
X017000Y008000
X018000Y008000
X019000Y008000
X019000Y006000
X018000Y006000
X018000Y005000
X017000Y005000
X016000Y005000
X015000Y006000
X014000Y006000
X014000Y005000
X013000Y005000
X012000Y005000
X011000Y006000
X010000Y006000
X010000Y005000
X009000Y005000
X008000Y005000
X007000Y006000
X006000Y006000
X006000Y005000
X005000Y005000
X004000Y005000
X003000Y006000
X002000Y006000
X002000Y005000
X002000Y009000
X002000Y010000
X002000Y011000
X002000Y012000
X002000Y013000
X002000Y014000
X002000Y015000
X002000Y016000
X003000Y016000
X004000Y016000
X005000Y016000
X005000Y017000
X004000Y017000
X003000Y017000
X003000Y018000
X002000Y018000
X002000Y019000
X003000Y019000
X003000Y020000
X003000Y021000
X004000Y021000
X004000Y022000
X005000Y022000
X005000Y023000
X004000Y023000
X004000Y024000
X005000Y024000
X005000Y025000
X004000Y025000
X003000Y025000
X003000Y026000
X002000Y027000
X002000Y028000
X002000Y029000
X002000Y030000
X002000Y031000
X002000Y032000
X002000Y033000
X002000Y034000
X002000Y035000
X002000Y036000
X002000Y038000
X005000Y038000
X007000Y038000
X009000Y038000
X011000Y038000
X013000Y038000
X011500Y036000
X010500Y036000
X009500Y036000
X008500Y036000
X005000Y036000
X003000Y030000
X002000Y025000
X002000Y024000
X003000Y024000
X003000Y023000
X002000Y023000
X002000Y022000
X003000Y022000
X002000Y021000
X002000Y020000
X004000Y020000
X004000Y019000
X004000Y018000
X005000Y018000
X005000Y019000
X005000Y020000
X005000Y021000
X007000Y021000
X007000Y022000
X007000Y023000
X007000Y024000
X013000Y028500
X013000Y029500
X013000Y030500
X014000Y030500
X014000Y029500
X014000Y028500
X014000Y031500
X014000Y032500
X013000Y032500
X013000Y033500
X013000Y034500
X014000Y034500
X014000Y035500
X013000Y035500
X014000Y033500
X013000Y031500
X016000Y036500
X017000Y037500
X019000Y035500
X019000Y034500
X019000Y033500
X019000Y032500
X019000Y031500
X019000Y030500
X019000Y029500
X019000Y028500
X021000Y028500
X021000Y029500
X021000Y030500
X021000Y031500
X021000Y032500
X021000Y033500
X021000Y034500
X021000Y035500
X021000Y036500
X021000Y037500
X021000Y027000
X021000Y026000
X021000Y025000
X021000Y024000
X021000Y023000
X021000Y022000
X021000Y021000
X021000Y020000
X021000Y018500
X021000Y017500
X021000Y016500
X021000Y015500
X021000Y014500
X021000Y013500
X021000Y012500
X021000Y011500
X020000Y011500
X020000Y012500
X020000Y013500
X020000Y014500
X019000Y014500
X019000Y013500
X019000Y012500
X019000Y011500
X018000Y012500
X016000Y013000
X016000Y014000
X015000Y014000
X014000Y014000
X013000Y014000
X013000Y013000
X014000Y013000
X015000Y013000
X012000Y016000
X012000Y018000
X009500Y014500
X006500Y014500
X006000Y012000
X007000Y011000
X008000Y011000
X008000Y010000
X009000Y010000
X009000Y011000
X010000Y011000
X011000Y011000
X010000Y010000
X009000Y006000
X004000Y012000
X018000Y010000
X019000Y016500
X020000Y016500
X019000Y022000
X019000Y024000
X017000Y025500
X016000Y025500
X018000Y026500
X019000Y026500
M30
